<?xml version="1.0" encoding="UTF-8"?>
<svg id="Logo" xmlns="http://www.w3.org/2000/svg" version="1.1" viewBox="0 0 1000 1000">
  <!-- Generator: Adobe Illustrator 29.0.0, SVG Export Plug-In . SVG Version: 2.1.0 Build 186)  -->
  <defs>
    <style>
      .st0 {
        fill: #161f24;
      }
    </style>
  </defs>
  <path class="st0" d="M313.3,610.6c-.8-.6-.8-1.8,0-2.3,5.4-3.9,8-8.4,9.2-15l.9-4.8c2.8-15.5-3-23.1-17.2-23.1h-41.7c-.7,0-1.3.5-1.4,1.2l-16,89.7c-.2.9.5,1.7,1.4,1.7h43c14.2,0,22.7-7.7,25.5-23.1l1.2-6.6c1.5-8.6.2-14-4.9-17.5ZM298.9,628l-.6,3.4c-1.1,6.1-3.4,8.2-9.3,8.2h-18c-.9,0-1.6-.8-1.4-1.7l3-16.9c.1-.7.7-1.2,1.4-1.2h18.5c5.8,0,7.5,2.1,6.4,8.2ZM303.5,591.8l-.4,2.3c-1,5.8-3.3,7.8-9.2,7.8h-16.2c-.9,0-1.6-.8-1.4-1.7l2.8-15.5c.1-.7.7-1.2,1.4-1.2h16.7c5.8,0,7.5,2.1,6.4,8.2Z"/>
  <path class="st0" d="M398.2,587.8c2.8-15-3-22.5-17.4-22.5h-25.1c-14.2,0-22.7,7.5-25.5,22.5l-8.7,47.5c-2.8,15,3,22.5,17.2,22.5h25.1c14.4,0,22.9-7.5,25.6-22.5l8.7-47.5ZM378.4,591.1l-7.5,41c-1.1,5.9-3.4,8-9.3,8h-13.8c-5.8,0-7.5-2-6.4-8l7.5-41c1.1-5.9,3.4-8,9.3-8h13.8c5.8,0,7.5,2,6.4,8Z"/>
  <path class="st0" d="M453.9,565.3h-43.1c-.7,0-1.3.5-1.4,1.2l-16,89.7c-.2.9.5,1.7,1.4,1.7h16.4c.7,0,1.3-.5,1.4-1.2l5.6-31.2c.1-.7.7-1.2,1.4-1.2h8.8c.6,0,1.1.3,1.3.8l14.7,31.9c.2.5.7.8,1.3.8h19.4c1,0,1.7-1.1,1.3-2l-14.1-31.1c-.4-.8,0-1.7.9-2,8.4-2.9,13.7-10.1,15.7-21.5l2.3-12.9c2.8-15.5-3-23.1-17.2-23.1ZM451.3,591.8l-1.1,6c-1.1,6.1-3.4,8.2-9.3,8.2h-17.6c-.9,0-1.6-.8-1.4-1.7l3.5-19.5c.1-.7.7-1.2,1.4-1.2h18.1c5.8,0,7.5,2.1,6.4,8.2Z"/>
  <path class="st0" d="M531.1,639.5h-34.8c-.9,0-1.6-.8-1.4-1.7l12.6-70.9c.2-.9-.5-1.7-1.4-1.7h-16.4c-.7,0-1.3.5-1.4,1.2l-16,89.7c-.2.9.5,1.7,1.4,1.7h54.6c.7,0,1.3-.5,1.4-1.2l2.8-15.5c.2-.9-.5-1.7-1.4-1.7Z"/>
  <path class="st0" d="M549.8,566.5l-16,89.7c-.2.9.5,1.7,1.4,1.7h56c.7,0,1.3-.5,1.4-1.2l2.8-15.5c.2-.9-.5-1.7-1.4-1.7h-36.2c-.9,0-1.6-.8-1.4-1.7l3-17c.1-.7.7-1.2,1.4-1.2h32.3c.7,0,1.3-.5,1.4-1.2l2.8-15.5c.2-.9-.5-1.7-1.4-1.7h-31.3c-.9,0-1.6-.8-1.4-1.7l2.6-14.8c.1-.7.7-1.2,1.4-1.2h37.2c.7,0,1.3-.5,1.4-1.2l2.8-15.5c.2-.9-.5-1.7-1.4-1.7h-56c-.7,0-1.3.5-1.4,1.2Z"/>
  <path class="st0" d="M681,565.3h-16.4c-.7,0-1.3.5-1.4,1.2l-9.1,51c-.3,1.4-2.2,1.6-2.7.3l-19.6-51.5c-.2-.6-.7-.9-1.3-.9h-16.5c-.7,0-1.3.5-1.4,1.2l-16,89.7c-.2.9.5,1.7,1.4,1.7h16.4c.7,0,1.3-.5,1.4-1.2l9.1-50.9c.3-1.4,2.2-1.6,2.7-.3l19.5,51.4c.2.6.7.9,1.3.9h16.6c.7,0,1.3-.5,1.4-1.2l16-89.7c.2-.9-.5-1.7-1.4-1.7Z"/>
  <path class="st0" d="M751.6,565.3h-60.4c-.7,0-1.3.5-1.4,1.2l-2.8,15.5c-.2.9.5,1.7,1.4,1.7h33.4c1.2,0,1.9,1.5,1.1,2.4l-48,54c-.2.2-.3.4-.3.7l-2.8,15.5c-.2.9.5,1.7,1.4,1.7h62.9c.7,0,1.3-.5,1.4-1.2l2.8-15.5c.2-.9-.5-1.7-1.4-1.7h-35.9c-1.2,0-1.9-1.4-1.1-2.4l48-54c.2-.2.3-.4.3-.7l2.8-15.5c.2-.9-.5-1.7-1.4-1.7Z"/>
  <path class="st0" d="M430.2,412.5l19.2-19.4h0c0,.1,36.3-37,36.3-37l-1.3-1.3c-3.2-2.6-7.4-4.2-11.9-4.2s-8.5,1.8-12.4,4.9l-10.9,11.2-20,20.4c-2.8,3.3-4.6,7.6-4.6,12.3s1.6,8.7,4.2,11.9l1.3,1.3Z"/>
  <path class="st0" d="M425.2,494.3l10.8-10.8.3-.3,2.8-2.8c.2,1.6.5,3.3.9,5.1h0c.4,1.8.9,3.8,1.5,5.8,3.2,11.5,9.3,22.4,18.4,31.4,13.3,13.3,30.5,20.3,47.9,20.9.2,0,.5,0,.7,0,19,.5,38.2-6.5,52.7-21,28-28,28-73.4,0-101.4-4.1-4.1-8.5-7.6-13-10.4,0,0,0,0-.2-.1,0,0-.1,0-.2-.1,0,0,0,0,0,0-.1,0-.3-.2-.4-.3-.5-.3-1.2-.7-2.2-1.3-.4-.2-.8-.4-1.2-.7-.1,0-.3-.2-.5-.2,0,0,0,0,0,0-4.6-2.5-12.3-6.4-22-10.2l18.6-18.6h0c0,0,27.3-27.5,27.3-27.5l-1.8-1.8c-4.3-3.5-9.9-5.7-15.9-5.7s-12,2.3-16.4,6.1l-24.7,24.8-.7.7-28.6,28.8h0s-9.1,9.1-9.1,9.1l-46.2,46.2c-3.8,4.4-6.1,10.2-6.1,16.4s2.1,11.6,5.7,15.9l1.8,1.8ZM482.8,439.1c7.2-6,16-9.4,25-10,.2,0,.5,0,.7,0,6.7-.3,13.6.9,19.9,3.8h0c4.5,2.1,8.6,4.9,12.1,8.4.1.1.3.2.4.4,8.1,8.1,12.6,19,12.6,30.5s-4.5,22.4-12.6,30.5c-4.9,4.9-11.1,8.6-17.7,10.7-3.7.6-7.2.9-10.5.9s-2.9,0-4.3-.2c-.2,0-.5,0-.7,0-33.4-3-50-35.9-54.8-47.2l29.8-27.7Z"/>
  <path class="st0" d="M430.3,448.9l58-58h0s19.5-19.5,19.5-19.5l22.4-22.4-1.6-1.6c-4-3.2-9-5.2-14.6-5.2s-3.7.2-5.5.7c-.2,0-.5.1-.7.2-3.3.9-6.3,2.6-8.8,4.7l-9.3,9.3h0s-33.7,33.7-33.7,33.7h0s-26.9,26.9-26.9,26.9c-3.5,4-5.6,9.3-5.6,15.1s1.9,10.6,5.2,14.6l1.6,1.6Z"/>
</svg>